<svg version="1.2" xmlns="http://www.w3.org/2000/svg" viewBox="0 0 995 152" width="995" height="152">
	<title>icon_left_brand-svg</title>
	<style>
		.s0 { fill: #af1dbc } 
	</style>
	<path id="LFPConnect" class="s0" aria-label="LFPConnect"  d="m110.5 120.1h39.5c1.8 0 2.6 1 2.6 2.6v16.6c0 1.9-0.8 2.7-2.6 2.7h-59.5c-1.6 0-2.6-0.8-2.6-2.7v-127.4c0-1.7 1-2.7 2.6-2.7h17.3c1.8 0 2.7 1 2.7 2.7zm125.1-108.3c0-1.6-1-2.6-2.6-2.6h-61.1c-1.8 0-2.7 1-2.7 2.6v127.5c0 1.7 0.9 2.7 2.7 2.7h17.2c1.7 0 2.7-1 2.7-2.7v-52.9h31.2c1.7 0 2.7-0.9 2.7-2.7v-16.6c0-1.7-1-2.7-2.7-2.7h-31.2v-33.3h41.2c1.6 0 2.6-1 2.6-2.7zm16.6 127.5c0 1.7 1 2.7 2.7 2.7h17.2c1.9 0 2.7-1 2.7-2.7v-41.8h19.9c15.6 0 23.9-8.5 23.9-23.9v-40.5c0-15.6-8.3-23.9-23.9-23.9h-39.8c-1.7 0-2.7 1-2.7 2.6zm22.6-63.7v-44.5h14.6c4.5 0 6.6 2.3 6.6 6.6v31.2c0 4.2-2.1 6.7-6.6 6.7zm127-42.5c0-15.6-8.5-23.9-23.9-23.9h-18.6c-15.6 0-24.1 8.3-24.1 23.9v85c0 15.6 8.5 23.9 24.1 23.9h18.6c15.4 0 23.9-8.3 23.9-23.9v-18c0-1.6-1-2.6-2.7-2.6h-16.6c-1.8 0-2.6 1-2.6 2.6v13.3c0 4.5-2.3 6.7-6.7 6.7h-8.6c-4.3 0-6.6-2.2-6.6-6.7v-75.7c0-4.3 2.1-6.6 6.6-6.6h8.6c4.4 0 6.7 2.3 6.7 6.6v13.3c0 1.7 0.8 2.7 2.6 2.7h16.6c1.7 0 2.7-1 2.7-2.7zm16.6 85c0 15.6 8.3 23.9 23.9 23.9h18.6c15.6 0 23.9-8.3 23.9-23.9v-68.4c0-15.6-8.3-23.9-23.9-23.9h-18.6c-15.6 0-23.9 8.3-23.9 23.9zm28.2 2.5c-4.3 0-6.6-2.2-6.6-6.6v-60.1c0-4.3 2.3-6.7 6.6-6.7h10.6c4.4 0 6.7 2.4 6.7 6.7v60.1c0 4.4-2.3 6.6-6.7 6.6zm107.4-94.8c-1.8 0-2.6 1-2.6 2.7v62.9l-31.2-63.4c-0.7-1.5-1.5-2.2-3-2.2h-13.1c-1.7 0-2.7 1-2.7 2.7v110.9c0 1.6 1 2.6 2.7 2.6h15.6c1.8 0 2.6-1 2.6-2.6v-63l31.2 63.5c0.7 1.5 1.5 2.1 3 2.1h13.1c1.7 0 2.7-1 2.7-2.6v-110.9c0-1.7-1-2.7-2.7-2.7zm87.5 0c-1.8 0-2.6 1-2.6 2.7v62.9l-31.2-63.4c-0.7-1.5-1.5-2.2-3-2.2h-13.1c-1.7 0-2.7 1-2.7 2.7v110.9c0 1.6 1 2.6 2.7 2.6h15.6c1.8 0 2.6-1 2.6-2.6v-63l31.2 63.5c0.7 1.5 1.5 2.1 3 2.1h13.1c1.7 0 2.7-1 2.7-2.6v-110.9c0-1.7-1-2.7-2.7-2.7zm101.1 2.7c0-1.7-0.6-2.7-2.6-2.7h-61.1c-1.5 0-2.5 1-2.5 2.7v110.9c0 1.6 1 2.6 2.5 2.6h61.1c2 0 2.6-1 2.6-2.6v-16.6c0-1.9-0.6-2.7-2.6-2.7h-41v-24.6h31.2c1.6 0 2.6-1 2.6-2.8v-16.4c0-1.8-1-2.8-2.6-2.8h-31.2v-25.6h41c2 0 2.6-1.2 2.6-2.8zm83.2 21.2c0-15.6-8.5-23.9-23.9-23.9h-18.6c-15.6 0-24.1 8.3-24.1 23.9v68.4c0 15.6 8.5 23.9 24.1 23.9h18.6c15.4 0 23.9-8.3 23.9-23.9v-17.9c0-1.7-1-2.7-2.7-2.7h-15.6c-1.8 0-2.6 1-2.6 2.7v14.1c0 4.5-2.3 6.6-6.7 6.6h-10.6c-4.3 0-6.6-2.1-6.6-6.6v-60.3c0-4.3 2.1-6.6 6.6-6.6h10.6c4.4 0 6.7 2.3 6.7 6.6v13.6c0 1.7 0.8 2.7 2.6 2.7h15.6c1.7 0 2.7-1 2.7-2.7zm77-23.9c1.8 0 2.7 1 2.7 2.7v16.6c0 1.7-0.9 2.7-2.7 2.7h-19.2v91.6c0 1.8-0.9 2.6-2.7 2.6h-17.3c-1.6 0-2.6-0.8-2.6-2.6v-91.6h-19.3c-1.6 0-2.6-1-2.6-2.7v-16.6c0-1.7 1-2.7 2.6-2.7z"/>
</svg>