<svg version="1.2" xmlns="http://www.w3.org/2000/svg" viewBox="0 0 995 152" width="995" height="152">
	<title>icon_left_brand-svg</title>
	<style>
		.s0 { fill: #e4664f } 
	</style>
	<path id="LFPCONNECT.IO" class="s0" aria-label="LFPCONNECT.IO"  d="m59.2 114.4h-34.9v-94.4h10.2v83.1h24.7zm0 17.7h-50.7v-112h10.2v100.7h40.5zm59.1-59.9h-34.1v-34.4h34.9v11.2h-24.7v11.9h23.9zm-23.9 17.7v42.3h-10.2v-53.6h34.1v11.3zm-26.1 42.3v-112h50.7v11.2h-40.6v100.8zm96.4-45.7h-19.2v-48.7h19.2q5 0 9.2 1.9 4.2 1.7 7.4 4.8 3.2 3.1 4.9 7.6 1.8 4.4 1.8 9.9 0 5.4-1.8 9.9-1.7 4.5-4.9 7.9-3.2 3.2-7.4 5-4.2 1.7-9.2 1.7zm-8.9-37.4v26.2h8.9q5.5 0 9.4-3.1 4-3.2 4-10.2 0-7.1-4-9.9-3.9-3-9.4-3zm-26 83.1v-112h32.3q9.6 0 17.2 3.2 7.7 3 12.9 8.6 5.4 5.5 8.2 13.2 2.9 7.7 2.9 17 0 9.2-2.9 16.9-2.8 7.6-8.2 13.1-5.2 5.6-12.9 8.7-7.6 3.1-17.3 3.1h-6.2v28.2h-10.3v-39.5h16.5q7 0 12.7-2.2 5.9-2.3 9.9-6.3 4.2-4.2 6.4-9.8 2.4-5.7 2.4-12.4 0-6.9-2.4-12.4-2.2-5.7-6.2-9.8-4-4-9.9-6.2-5.7-2.2-12.8-2.2h-22.3v100.8zm148.4 0h-18.3q-11.1 0-20.5-4.1-9.2-4.2-15.9-11.5-6.7-7.4-10.6-17.7-3.7-10.4-3.7-22.8 0-12.4 3.7-22.7 3.9-10.2 10.6-17.6 6.7-7.4 15.9-11.4 9.4-4.2 20.5-4.2h18.3v11.2h-18.3q-8.9 0-16.4 3.2-7.4 3.2-13 9.1-5.3 5.9-8.4 14.1-3 8.2-3 18.3 0 10.1 3 18.5 3.1 8.2 8.4 14.1 5.6 5.8 13 9 7.5 3.2 16.4 3.2h18.3zm0-17.6h-18.3q-7.4 0-13.9-2.7-6.4-2.7-11.1-7.5-4.7-5.1-7.4-12.1-2.7-7.3-2.7-16.1 0-8.8 2.7-15.8 2.7-7.2 7.4-12.1 4.7-5 11.1-7.7 6.5-2.7 13.9-2.7h18.3v11.2h-18.3q-11.1 0-18.1 6.7-6.9 6.8-6.9 20.4 0 13.5 6.9 20.4 7 6.7 18.1 6.7h18.3zm61.1 17.7h-4q-11.1 0-20.5-4.1-9.2-4.2-15.9-11.5-6.8-7.4-10.6-17.7-3.7-10.4-3.7-22.8 0-12.4 3.7-22.7 3.8-10.2 10.6-17.6 6.7-7.4 15.9-11.4 9.4-4.2 20.5-4.2h4q11.1 0 20.3 4.2 9.4 4 16.1 11.4 6.7 7.4 10.4 17.6 3.9 10.3 3.9 22.7 0 12.4-3.9 22.8-3.7 10.3-10.4 17.7-6.7 7.3-16.1 11.5-9.2 4.1-20.3 4.1zm-44.8-56.1q0 10.1 3 18.5 3 8.2 8.4 14.1 5.5 5.8 12.9 9 7.6 3.2 16.5 3.2h4q8.7 0 16.1-3.2 7.6-3.2 12.9-9 5.6-5.9 8.6-14.1 3-8.4 3-18.5 0-10.1-3-18.3-3-8.2-8.6-14.1-5.3-5.9-12.9-9.1-7.4-3.1-16.1-3.1h-4q-8.9 0-16.5 3.1-7.4 3.2-12.9 9.1-5.4 5.9-8.4 14.1-3 8.2-3 18.3zm44.8 38.6h-4q-7.4 0-14-2.7-6.3-2.7-11-7.7-4.7-5-7.4-12.1-2.7-7.2-2.7-16.1 0-8.7 2.7-15.8 2.7-7.2 7.4-12.2 4.7-5.1 11-7.7 6.6-2.7 14-2.7h4q7.4 0 13.8 2.7 6.3 2.6 11 7.7 4.7 5 7.4 12.2 2.7 7.1 2.7 15.8 0 8.9-2.7 16.1-2.7 7.1-7.4 12.1-4.7 5-11 7.7-6.4 2.7-13.8 2.7zm-4-11.2h4q11.1 0 18-6.9 7-6.9 7-20.5 0-13.4-7-20.3-7.1-6.9-18-6.9h-4q-11.1 0-18.2 6.9-6.8 6.7-6.8 20.3 0 13.6 6.8 20.5 7.1 6.9 18.2 6.9zm128.6 24.1l-37.1-54.7v59.3h-10.3v-90.3l54.7 78q1.4 2.4 3.4 2.4 2.2 0 2.2-3.7v-98.4h10.2v97.7q0 7.1-2.7 11.4-2.7 4.4-8.5 4.4-4.7 0-7.4-1.5-2.5-1.7-4.5-4.6zm-40-103.9l37.1 56.9v-60.4h10.1v89.1l-54.4-77.7q-1.2-1.7-3-1.7-1.4 0-2 1.1-0.7 0.8-0.7 2v99.2h-10.1v-98.9q0-6.4 3-10.6 3.2-4.2 8.8-4.2 7.7 0 11.2 5.2zm141.3 103.9l-37.1-54.7v59.3h-10.2v-90.3l54.7 78q1.4 2.4 3.4 2.4 2.2 0 2.2-3.7v-98.4h10.2v97.7q0 7.1-2.7 11.4-2.7 4.4-8.5 4.4-4.7 0-7.4-1.5-2.5-1.7-4.6-4.6zm-39.9-103.9l37.1 56.9v-60.4h10.1v89.1l-54.4-77.7q-1.2-1.7-3-1.7-1.4 0-2.1 1.1-0.6 0.8-0.6 2v99.2h-10.1v-98.9q0-6.4 3-10.6 3.2-4.2 8.7-4.2 7.8 0 11.3 5.2zm128.9 48.5h-34.7v-34.4h35.5v11.3h-25.3v11.9h24.5zm0.7 59.9h-51.2v-111.9h51.3v11.2h-41.1v89.5h41zm0-17.6h-35.4v-36h34.7v11.3h-24.5v13.4h25.2zm76.3 17.6h-18.2q-11.1 0-20.5-4-9.3-4.2-16-11.6-6.7-7.4-10.5-17.6-3.7-10.4-3.7-22.8 0-12.5 3.7-22.7 3.8-10.2 10.5-17.6 6.7-7.4 16-11.4 9.4-4.2 20.5-4.2h18.2v11.2h-18.2q-8.9 0-16.5 3.2-7.4 3.2-12.9 9.1-5.4 5.8-8.4 14.1-3 8.2-3 18.3 0 10 3 18.4 3 8.3 8.4 14.1 5.5 5.9 12.9 9.1 7.6 3.2 16.5 3.2h18.2zm0-17.6h-18.2q-7.4 0-14-2.7-6.4-2.7-11.1-7.6-4.7-5-7.3-12.1-2.7-7.2-2.7-16.1 0-8.7 2.7-15.8 2.6-7.2 7.3-12 4.7-5.1 11.1-7.8 6.6-2.7 14-2.7h18.2v11.3h-18.2q-11.1 0-18.2 6.7-6.9 6.7-6.9 20.3 0 13.6 6.9 20.5 7.1 6.7 18.2 6.7h18.2zm5.6-94.3h72v11.2h-72zm38.9 112.2v-94.6h33.1v11.3h-23v83.3zm-15.8 0v-83.3h-23.1v-11.3h33.2v94.6zm39.9-14.7q0-3.1 1.2-6 1.2-3 3-5.2 2.1-2.2 4.7-3.4 2.7-1.3 5.7-1.3 3.1 0 5.8 1.3 2.6 1.2 4.7 3.4 2 2.2 3.1 5.2 1.2 2.9 1.2 6 0 3.4-1.2 6.4-1.1 2.9-3.1 5.1-2.1 2-4.7 3.3-2.7 1.2-5.8 1.2-6 0-10.4-4.5-4.2-4.7-4.2-11.5zm10.5 0q0 1.9 1.1 3.2 1.2 1.2 3 1.2 1.9 0 3.1-1.2 1.3-1.3 1.3-3.2 0-1.6-1.3-3-1.2-1.3-3.1-1.3-1.8 0-3 1.3-1.1 1.4-1.1 3zm58.2-97.5v112h-10.1v-112zm-26 112v-112h10.2v112zm91.7 0h-4q-11.1 0-20.5-4-9.2-4.2-16-11.6-6.7-7.4-10.5-17.7-3.7-10.4-3.7-22.8 0-12.4 3.7-22.6 3.8-10.3 10.5-17.7 6.8-7.4 16-11.4 9.4-4.2 20.5-4.2h4q11.1 0 20.3 4.2 9.4 4 16.1 11.4 6.7 7.4 10.4 17.7 3.9 10.2 3.9 22.6 0 12.4-3.9 22.8-3.7 10.3-10.4 17.7-6.7 7.4-16.1 11.6-9.2 4-20.3 4zm-44.8-56.1q0 10.1 3 18.5 3 8.2 8.4 14.1 5.5 5.9 12.9 9 7.6 3.2 16.5 3.2h4q8.7 0 16.1-3.2 7.6-3.1 12.9-9 5.6-5.9 8.6-14.1 3-8.4 3-18.5 0-10.1-3-18.3-3-8.2-8.6-14.1-5.3-5.9-12.9-9-7.4-3.2-16.1-3.2h-4q-8.9 0-16.5 3.2-7.4 3.1-12.9 9-5.4 5.9-8.4 14.1-3 8.2-3 18.3zm44.8 38.6h-4q-7.4 0-14-2.7-6.3-2.6-11-7.7-4.7-5-7.4-12.1-2.7-7.2-2.7-16.1 0-8.7 2.7-15.8 2.7-7.2 7.4-12.2 4.7-5 11-7.7 6.6-2.7 14-2.7h4q7.4 0 13.8 2.7 6.3 2.7 11 7.7 4.7 5 7.4 12.2 2.7 7.1 2.7 15.8 0 8.9-2.7 16.1-2.7 7.1-7.4 12.1-4.7 5.1-11 7.7-6.4 2.7-13.8 2.7zm-4-11.2h4q11.1 0 18-6.9 7-6.9 7-20.5 0-13.4-7-20.3-7.1-6.9-18-6.9h-4q-11.1 0-18.2 6.9-6.8 6.7-6.8 20.3 0 13.6 6.8 20.5 7.1 6.9 18.2 6.9z"/>
</svg>