<svg version="1.2" xmlns="http://www.w3.org/2000/svg" viewBox="0 0 995 152" width="995" height="152">
	<title>icon_left_brand-svg</title>
	<defs>
		<filter x="-50%" y="-50%" width="200%" height="200%" id="f1" ><feDropShadow dx="-3.5355339059327378" dy="3.5355339059327373" stdDeviation="0" flood-color="#ffffff" flood-opacity="1"/></filter>
	</defs>
	<style>
		.s0 { filter: url(#f1);fill: #af1dbc } 
	</style>
	<path id="LFPConnect" fill-rule="evenodd" class="s0" d="m110.5 121.1h39.5c1.8 0 2.6 1 2.6 2.6v16.6c0 1.9-0.8 2.7-2.6 2.7h-59.5c-1.6 0-2.6-0.8-2.6-2.7v-127.4c0-1.7 1-2.7 2.6-2.7h17.3c1.8 0 2.7 1 2.7 2.7zm125.1-91.7c0 1.7-1 2.7-2.6 2.7h-41.2v33.3h31.2c1.7 0 2.7 1 2.7 2.7v16.6c0 1.8-1 2.7-2.7 2.7h-31.2v52.9c0 1.7-1 2.7-2.7 2.7h-17.2c-1.8 0-2.7-1-2.7-2.7v-127.5c0-1.6 0.9-2.6 2.7-2.6h61.1c1.6 0 2.6 1 2.6 2.6zm16.6-16.6c0-1.6 1-2.6 2.7-2.6h39.8c15.6 0 23.9 8.3 23.9 23.9v40.5c0 15.4-8.3 23.9-23.9 23.9h-19.9v41.8c0 1.7-0.8 2.7-2.7 2.7h-17.2c-1.7 0-2.7-1-2.7-2.7zm37.2 63.8c4.5 0 6.6-2.5 6.6-6.7v-31.2c0-4.3-2.1-6.6-6.6-6.6h-14.6v44.5zm112.4-24.6c0 1.7-1 2.7-2.7 2.7h-16.6c-1.8 0-2.6-1-2.6-2.7v-13.3c0-4.3-2.3-6.6-6.7-6.6h-8.6c-4.5 0-6.6 2.3-6.6 6.6v75.7c0 4.5 2.3 6.7 6.6 6.7h8.6c4.4 0 6.7-2.2 6.7-6.7v-13.3c0-1.6 0.8-2.6 2.6-2.6h16.6c1.7 0 2.7 1 2.7 2.6v18c0 15.6-8.5 23.9-23.9 23.9h-18.6c-15.6 0-24.1-8.3-24.1-23.9v-85c0-15.6 8.5-23.9 24.1-23.9h18.6c15.4 0 23.9 8.3 23.9 23.9zm16.6-1.3c0-15.6 8.3-23.9 23.9-23.9h18.6c15.6 0 23.9 8.3 23.9 23.9v68.4c0 15.6-8.3 23.9-23.9 23.9h-18.6c-15.6 0-23.9-8.3-23.9-23.9zm38.8 70.9c4.4 0 6.7-2.2 6.7-6.6v-60.1c0-4.3-2.3-6.7-6.7-6.7h-10.6c-4.3 0-6.6 2.4-6.6 6.7v60.1c0 4.4 2.3 6.6 6.6 6.6zm112.4-94.8c1.7 0 2.7 1 2.7 2.7v110.9c0 1.6-1 2.6-2.7 2.6h-13.1c-1.5 0-2.3-0.6-3-2.1l-31.2-63.5v63c0 1.6-0.8 2.6-2.6 2.6h-15.6c-1.7 0-2.7-1-2.7-2.6v-110.9c0-1.7 1-2.7 2.7-2.7h13.1c1.5 0 2.3 0.7 3 2.2l31.2 63.4v-62.9c0-1.7 0.8-2.7 2.6-2.7zm87.5 0c1.7 0 2.7 1 2.7 2.7v110.9c0 1.6-1 2.6-2.7 2.6h-13.1c-1.5 0-2.3-0.6-3-2.1l-31.2-63.5v63c0 1.6-0.8 2.6-2.6 2.6h-15.6c-1.7 0-2.7-1-2.7-2.6v-110.9c0-1.7 1-2.7 2.7-2.7h13.1c1.5 0 2.3 0.7 3 2.2l31.2 63.4v-62.9c0-1.7 0.8-2.7 2.6-2.7zm85.5 19.3c0 1.6-0.6 2.8-2.6 2.8h-41v25.6h31.2c1.6 0 2.6 1 2.6 2.8v16.4c0 1.8-1 2.8-2.6 2.8h-31.2v24.6h41c2 0 2.6 0.8 2.6 2.7v16.6c0 1.6-0.6 2.6-2.6 2.6h-61.1c-1.5 0-2.5-1-2.5-2.6v-110.9c0-1.7 1-2.7 2.5-2.7h61.1c2 0 2.6 1 2.6 2.7zm83.2 22.5c0 1.7-1 2.7-2.7 2.7h-15.6c-1.8 0-2.6-1-2.6-2.7v-13.6c0-4.3-2.3-6.6-6.7-6.6h-10.6c-4.5 0-6.6 2.3-6.6 6.6v60.3c0 4.5 2.3 6.6 6.6 6.6h10.6c4.4 0 6.7-2.1 6.7-6.6v-14.1c0-1.7 0.8-2.7 2.6-2.7h15.6c1.7 0 2.7 1 2.7 2.7v17.9c0 15.6-8.5 23.9-23.9 23.9h-18.6c-15.6 0-24.1-8.3-24.1-23.9v-68.4c0-15.6 8.5-23.9 24.1-23.9h18.6c15.4 0 23.9 8.3 23.9 23.9zm77-41.8c1.8 0 2.7 1 2.7 2.7v16.6c0 1.7-0.9 2.7-2.7 2.7h-19.2v91.6c0 1.8-0.9 2.6-2.7 2.6h-17.3c-1.6 0-2.6-0.8-2.6-2.6v-91.6h-19.3c-1.6 0-2.6-1-2.6-2.7v-16.6c0-1.7 1-2.7 2.6-2.7z"/>
</svg>